Coordinates
version=1
nRows=12
nColumns=24
inDegrees=yes

Units are S.I. units (second, meters, Newtons, ...)
Angles are in degrees.

endheader
time	pelvis_tilt	pelvis_list	pelvis_rotation	pelvis_tx	pelvis_ty	pelvis_tz	hip_flexion_r	hip_adduction_r	hip_rotation_r	knee_angle_r	ankle_angle_r	subtalar_angle_r	mtp_angle_r	hip_flexion_l	hip_adduction_l	hip_rotation_l	knee_angle_l	ankle_angle_l	subtalar_angle_l	mtp_angle_l	lumbar_extension	lumbar_bending	lumbar_rotation
      1.12100000	     -0.84789559	      1.11241780	     -7.65067486	     -0.12680759	      0.99345759	      0.33216267	    -13.44900160	      0.42850399	     -2.92488274	    -11.93425026	     13.72224605	      1.49154260	     10.56811501	     20.58680312	      1.51277611	    -13.16858583	      6.01515311	      1.51973931	     -5.54474303	      7.48966751	     -4.66231982	     -1.18340600	     15.62699491
      1.12516667	     -0.80046377	      1.22787511	     -7.71525995	     -0.12075792	      0.99299708	      0.33207978	    -13.60673284	      0.20110277	     -2.93446268	    -12.41648209	     13.68772806	      1.63125100	     10.64236145	     20.56151162	      1.68227333	    -12.97349745	      5.66675730	      1.44138906	     -5.93057627	      7.49290220	     -4.65319296	     -1.35157645	     15.73462423
      1.12933333	     -0.75754800	      1.33782533	     -7.78039707	     -0.11470907	      0.99256170	      0.33197672	    -13.73712113	     -0.02438361	     -2.96248828	    -12.94042328	     13.63279064	      1.79925011	     10.76730215	     20.53589997	      1.84450786	    -12.70526671	      5.28010412	      1.24443039	     -6.44000697	      7.51171105	     -4.64637732	     -1.48783965	     15.86297930
      1.13350000	     -0.70953467	      1.47193077	     -7.84842753	     -0.10860798	      0.99216473	      0.33189239	    -13.86349637	     -0.27443291	     -2.96740877	    -13.47770677	     13.55322988	      1.92827732	     10.91629862	     20.49935662	      2.02829756	    -12.40869332	      4.85551858	      1.03773250	     -6.94027362	      7.54709132	     -4.63701413	     -1.67182918	     15.96836178
      1.13766667	     -0.69064125	      1.61481496	     -7.92226986	     -0.10247122	      0.99176734	      0.33181893	    -13.93477570	     -0.53240411	     -2.97050048	    -14.05951860	     13.44471843	      2.04898538	     11.09046012	     20.49184152	      2.21196887	    -12.08856173	      4.39393364	      0.78133896	     -7.47232182	      7.59649344	     -4.57853162	     -1.86391216	     16.08000074
      1.14183333	     -0.64056828	      1.76700096	     -7.99270186	     -0.09631270	      0.99143991	      0.33173426	    -14.02493993	     -0.80533856	     -2.98219173	    -14.66379226	     13.29949032	      2.16731227	     11.32302014	     20.43923439	      2.41206697	    -11.71508232	      3.92474762	      0.47099758	     -8.05963964	      7.67033229	     -4.56072811	     -2.06830301	     16.18949028
      1.14600000	     -0.60676002	      1.92995252	     -8.06897566	     -0.09012843	      0.99112302	      0.33165038	    -14.07235098	     -1.09078744	     -2.99345023	    -15.31340117	     13.13619289	      2.28507349	     11.57036881	     20.40691205	      2.61711565	    -11.35048763	      3.42378331	      0.10976446	     -8.63692446	      7.75258174	     -4.51443691	     -2.28555137	     16.29370860
      1.15016667	     -0.58205468	      2.10187015	     -8.14502934	     -0.08391562	      0.99083102	      0.33156056	    -14.08695432	     -1.38624155	     -3.00206883	    -16.00242096	     12.93395444	      2.39394372	     11.85048423	     20.37760863	      2.82990447	    -10.95808464	      2.91363478	     -0.30026726	     -9.24604836	      7.84552844	     -4.45456392	     -2.51058529	     16.39758567
      1.15433333	     -0.53979827	      2.28429711	     -8.22063095	     -0.07767982	      0.99059624	      0.33145628	    -14.09733806	     -1.69813259	     -3.02425128	    -16.73005549	     12.69619895	      2.50358727	     12.16470349	     20.32494612	      3.05725474	    -10.57039812	      2.39922299	     -0.74702267	     -9.85846914	      7.94834095	     -4.41028750	     -2.74882089	     16.49653796
      1.15850000	     -0.51725932	      2.46961291	     -8.29275618	     -0.07143250	      0.99037258	      0.33133934	    -14.06052122	     -2.01131188	     -3.04430974	    -17.50109013	     12.42039683	      2.60505648	     12.54414801	     20.29562242	      3.28362803	    -10.17248752	      1.86457843	     -1.21770093	    -10.48550956	      8.06701753	     -4.34165147	     -2.98587698	     16.58819644
      1.16266667	     -0.46971681	      2.66870099	     -8.34190046	     -0.06515529	      0.99021254	      0.33120495	    -14.04112148	     -2.33461143	     -3.07613732	    -18.27737779	     12.02809316	      2.52269232	     17.66600623	     20.24633176	      3.53162714	     -9.79618836	      1.31004701	     -1.70388366	    -11.06385999	      9.61800361	     -4.29674621	     -3.25643772	     16.56868369
      1.16683333	     -0.42697529	      2.87821431	     -8.43175092	     -0.05887047	      0.99009066	      0.33106782	    -13.95857814	     -2.69268862	     -3.10707885	    -19.15912768	     11.67230678	      2.71271291	     17.72115260	     20.19504331	      3.77790114	     -9.52855003	      0.76303261	     -2.19237341	    -11.53647831	      9.63361168	     -4.23750758	     -3.51120778	     16.73377822
